# AST/ASF file generated using VICON BodyLanguage
# -----------------------------------------------
:version 1.10
:name VICON
:units
  mass 1.0
  length 0.45
  angle deg
:documentation
   .ast/.asf automatically generated from VICON data using
   VICON BodyBuilder and BodyLanguage model FoxedUp or BRILLIANT.MOD
:root
   order TX TY TZ RX RY RZ
   axis XYZ
   position 0 0 0  
   orientation 0 0 0 
:bonedata
  begin
     id 1 
     name lhipjoint
     direction 0.576517 -0.752066 0.319413 
     length 2.45433 
     axis 0 0 0  XYZ
  end
  begin
     id 2 
     name lfemur
     direction 0.34202 -0.939693 0  
     length 7.54459  
     axis 0 0 20  XYZ
    dof rx ry rz
    limits (-160.0 20.0)
           (-70.0 70.0)
           (-60.0 70.0)
  end
  begin
     id 3 
     name ltibia
     direction 0.34202 -0.939693 0   
     length 7.73986   
     axis 0 0 20   XYZ
    dof rx
    limits (-10.0 170.0)
  end
  begin
     id 4 
     name lfoot
     direction 0.090693 -0.249177 0.964202   
     length 2.28437   
     axis -90 7.62852e-016 20   XYZ
    dof rx rz
    limits (-45.0 90.0)
           (-70.0 20.0)
  end
  begin
     id 5 
     name ltoes
     direction 1.5356e-011 -4.21928e-011 1   
     length 1.14243   
     axis -90 7.62852e-016 20   XYZ
    dof rx
    limits (-90.0 20.0)
  end
  begin
     id 6 
     name rhipjoint
     direction -0.573937 -0.753736 0.320122   
     length 2.44889  
     axis 0 0 0  XYZ 
  end
  begin
     id 7 
     name rfemur
     direction -0.34202 -0.939693 0   
     length 7.50166   
     axis 0 0 -20   XYZ
    dof rx ry rz
    limits (-160.0 20.0)
           (-70.0 70.0)
           (-70.0 60.0)
  end
  begin
     id 8 
     name rtibia
     direction -0.34202 -0.939693 0   
     length 7.54266   
     axis 0 0 -20   XYZ
    dof rx
    limits (-10.0 170.0)
 end
 begin
     id 9 
     name rfoot
     direction -0.114017 -0.31326 0.942798   
     length 2.34212  
     axis -90 -7.62852e-016 -20   XYZ
    dof rx rz
    limits (-45.0 90.0)
           (-20.0 70.0)
  end
  begin
     id 10 
     name rtoes
     direction -1.53557e-011 -4.21867e-011 1   
     length 1.16246   
     axis -90 -7.62852e-016 -20   XYZ
    dof rx
    limits (-90.0 20.0)
  end
  begin
     id 11 
     name lowerback
     direction -0.0228371 0.999155 -0.034167   
     length 2.0537   
     axis 0 0 0   XYZ
    dof rx ry rz
    limits (-20.0 45.0)
           (-30.0 30.0)
           (-30.0 30.0)
  end
  begin
     id 12 
     name upperback
     direction 0.0198981 0.999794 0.00389455   
     length 2.05302   
     axis 0 0 0   XYZ
    dof rx ry rz
    limits (-20.0 45.0)
           (-30.0 30.0)
           (-30.0 30.0)
  end
  begin
     id 13 
     name thorax
     direction 0.0304566 0.99935 0.0192987   
     length 2.05315   
     axis 0 0 0   XYZ
    dof rx ry rz
    limits (-20.0 45.0)
           (-30.0 30.0)
           (-30.0 30.0)
  end
  begin
     id 14 
     name lowerneck
     direction -0.0196762 0.99417 0.106017   
     length 1.82056   
     axis 0 0 0   XYZ
    dof rx ry rz
    limits (-20.0 45.0)
           (-30.0 30.0)
           (-30.0 30.0)
  end
  begin
     id 15 
     name upperneck
     direction 0.00517787 0.9802 -0.197944   
     length 1.83835   
     axis 0 0 0   XYZ
    dof rx ry rz
    limits (-20.0 45.0)
           (-30.0 30.0)
           (-30.0 30.0)
  end
  begin
     id 16
     name head
     direction 0.00211419 0.996945 -0.078081  
     length 1.85629  
     axis 0 0 0   XYZ
    dof rx ry rz
    limits (-20.0 45.0)
           (-30.0 30.0)
           (-30.0 30.0)
  end
  begin
     id 17 
     name lclavicle
     direction 0.930001 0.365811 -0.0357824  
     length 3.81961  
     axis 0 0 0   XYZ
    dof ry rz
    limits (-20.0 10.0)
           (0.0 20.0)
  end
  begin
     id 18 
     name lhumerus
     direction 1 -4.48968e-011 -3.06644e-027   
     length 5.14507   
     axis 180 -30 -90   XYZ
    dof rx ry rz
    limits (-60.0 90.0)
           (-90.0 90.0)
           (-90.0 90.0)
  end
  begin
     id 19
     name lradius
     direction 1 -4.48965e-011 9.06925e-028   
     length 3.50646   
     axis 180 -30 -90   XYZ
    dof rx
    limits (-10.0 170.0)
  end
  begin
     id 20
     name lwrist
     direction 1 -4.48957e-011 1.03922e-027   
     length 1.75323   
     axis -2.56395e-016 90 90   XYZ
    dof ry
    limits (-180.0 0.0)
 end
  begin
     id 21 
     name lhand
     direction 1 -4.48967e-011 2.08017e-027   
     length 0.629969   
     axis -1.32723e-015 90 90   XYZ
    dof rx rz
    limits (-90.0 90.0)
           (-45.0 45.0)
  end
  begin
     id 22 
     name lfingers
     direction 1 -4.49089e-011 4.20095e-027   
     length 0.507897   
     axis -2.6545e-015 90 90   XYZ
    dof rx
    limits (0.0 90.0)
  end
  begin
     id 23
     name lthumb
     direction 0.707107 -6.35001e-011 0.707107   
     length 0.729241   
     axis -90 45 5.05613e-014   XYZ
    dof rx rz
    limits (-45.0 45.0)
           (-45.0 45.0)
  end
  begin
     id 24 
     name rclavicle
     direction -0.881882 0.464123 -0.0829113   
     length 3.47515  
     axis 0 0 0   XYZ 
    dof ry rz
    limits (-10.0 20.0)
           (-20.0 0.0)
  end
  begin
     id 25 
     name rhumerus
     direction -1 -4.48961e-011 -1.55672e-027  
     length 5.232   
     axis 180 30 90   XYZ
    dof rx ry rz
    limits (-90.0 60.0)
           (-90.0 90.0)
           (-90.0 90.0)
  end
  begin
     id 26 
     name rradius
     direction -1 -4.48963e-011 6.18178e-029   
     length 3.65641   
     axis 180 30 90   XYZ
    dof rx
    limits (-10.0 170.0)
  end
  begin
     id 27 
     name rwrist
     direction -1 -4.48982e-011 1.04136e-027   
     length 1.8282   
     axis -2.56395e-016 -90 -90   XYZ
    dof ry
    limits (-180.0 0.0)
  end
  begin
     id 28
     name rhand
     direction -1 -4.48929e-011 2.07378e-027   
     length 0.656807   
     axis -1.32723e-015 -90 -90   XYZ
    dof rx rz
    limits (-90.0 90.0)
           (-45.0 45.0)
  end
  begin
     id 29
     name rfingers
     direction -1 -4.489e-011 4.13816e-027   
     length 0.529535   
     axis -2.6545e-015 -90 -90   XYZ
    dof rx
    limits (0.0 90.0)
  end
  begin
     id 30
     name rthumb
     direction -0.707107 -6.34843e-011 0.707107   
     length 0.760309   
     axis -90 -45 -5.05613e-014   XYZ
    dof rx rz
    limits (-45.0 45.0)
           (-45.0 45.0)
  end
:hierarchy
  begin
    root lhipjoint rhipjoint lowerback
    lhipjoint lfemur
    lfemur ltibia
    ltibia lfoot
    lfoot ltoes
    rhipjoint rfemur
    rfemur rtibia
    rtibia rfoot
    rfoot rtoes
    lowerback upperback
    upperback thorax
    thorax lowerneck lclavicle rclavicle
    lowerneck upperneck
    upperneck head
    lclavicle lhumerus
    lhumerus lradius
    lradius lwrist
    lwrist lhand lthumb
    lhand lfingers
    rclavicle rhumerus
    rhumerus rradius
    rradius rwrist
    rwrist rhand rthumb
    rhand rfingers
  end

#!OML:ASF H:\ManfredETheater\Project 1\Capture day 1\Session 1\subject.ASF
:FULLY-SPECIFIED
:DEGREES
166
root 1.77146 17.9347 -4.58147 6.10066 0.607582 -0.0955384
lowerback -1.69156 -0.255933 -6.88963
upperback -1.19293 -0.251879 1.82823
thorax -0.247449 -0.0806594 5.76787
lowerneck -5.71561 -6.53242 -6.77038
upperneck 18.2824 -13.7126 27.0259
head 9.17239 -4.96854 9.28263
rclavicle 3.72721e-016 -8.05078e-015
rhumerus -22.2214 -8.86473 -15.6236
rradius 30.9706
rwrist 7.47775
rhand -22.2461 -16.6124
rfingers 7.12502
rthumb 4.17112 -46.5514
lclavicle 3.72721e-016 -8.05078e-015
lhumerus -14.114 -3.21813 7.88771
lradius 61.1291
lwrist 0.862914
lhand -6.90998 14.0339
lfingers 7.12502
lthumb 18.9574 43.1301
rfemur -11.1744 -1.43989 10.6133
rtibia 27.4813
rfoot -15.9827 -15.4148
rtoes 1.30863
lfemur -13.2298 -4.34674 -11.8903
ltibia 31.2628
lfoot -16.8662 13.6551
ltoes -9.37033
167
root 1.76321 17.9354 -4.58774 6.09413 0.604249 -0.165456
lowerback -1.69845 -0.189577 -6.93581
upperback -1.11129 -0.160215 1.76019
thorax -0.172908 -0.0399963 5.72403
lowerneck -5.65982 -6.77343 -7.12362
upperneck 19.7538 -14.1717 26.0757
head 9.69932 -5.1811 9.00338
rclavicle 5.43552e-016 6.06293e-015
rhumerus -23.0618 -8.08446 -16.4917
rradius 31.1946
rwrist 7.67259
rhand -22.2089 -16.5435
rfingers 7.12502
rthumb 4.207 -46.4817
lclavicle 5.43552e-016 6.06293e-015
lhumerus -13.5481 -3.67978 6.98563
lradius 62.8339
lwrist 0.95738
lhand -6.91789 13.9296
lfingers 7.12502
lthumb 18.9498 43.0265
rfemur -11.197 -1.45917 10.7211
rtibia 27.4805
rfoot -15.9585 -15.3911
rtoes 1.33207
lfemur -13.25 -4.39028 -11.7845
ltibia 31.2762
lfoot -16.846 13.7076
ltoes -9.38483
168
root 1.75456 17.9363 -4.59399 6.09146 0.601343 -0.235574
lowerback -1.70566 -0.115947 -6.98479
upperback -1.0273 -0.0585822 1.6858
thorax -0.0971773 0.00551777 5.6754
lowerneck -5.62228 -7.00569 -7.47435
upperneck 21.2179 -14.5826 25.0815
head 10.2244 -5.38373 8.7091
rclavicle 3.47873e-016 9.61621e-015
rhumerus -23.943 -7.25953 -17.4114
rradius 31.4002
rwrist 7.90177
rhand -22.1616 -16.4537
rfingers 7.12502
rthumb 4.2527 -46.391
lclavicle 3.47873e-016 9.61621e-015
lhumerus -12.9147 -4.03463 6.0219
lradius 64.5104
lwrist 0.964337
lhand -6.94124 13.7919
lfingers 7.12502
lthumb 18.9273 42.891
rfemur -11.2235 -1.47596 10.8309
rtibia 27.4795
rfoot -15.9345 -15.3704
rtoes 1.36117
lfemur -13.2722 -4.43811 -11.6767
ltibia 31.286
lfoot -16.825 13.7627
ltoes -9.39269
169
root 1.74557 17.9373 -4.60027 6.09333 0.598235 -0.306868
lowerback -1.71281 -0.0339627 -7.03384
upperback -0.939564 0.0544534 1.60378
thorax -0.0191801 0.0565006 5.61913
lowerneck -5.61 -7.23057 -7.81512
upperneck 22.6706 -14.9479 24.0512
head 10.7492 -5.57646 8.40013
rclavicle -2.40483e-015 -1.0635e-014
rhumerus -24.8657 -6.3871 -18.3879
rradius 31.5869
rwrist 8.16924
rhand -22.0997 -16.3408
rfingers 7.12502
rthumb 4.31247 -46.2769
lclavicle -2.40483e-015 -1.0635e-014
lhumerus -12.2108 -4.26679 5.00496
lradius 66.1542
lwrist 0.890042
lhand -6.97159 13.621
lfingers 7.12502
lthumb 18.8981 42.723
rfemur -11.2553 -1.49023 10.9437
rtibia 27.4783
rfoot -15.9101 -15.3526
rtoes 1.3944
lfemur -13.2975 -4.49056 -11.566
ltibia 31.2925
lfoot -16.8032 13.8216
ltoes -9.39265
170
root 1.73636 17.9385 -4.60659 6.10046 0.594595 -0.379818
lowerback -1.72004 0.0568384 -7.08074
upperback -0.846725 0.179548 1.51285
thorax 0.0625436 0.113177 5.55264
lowerneck -5.6273 -7.44884 -8.14002
upperneck 24.1061 -15.2697 22.9946
head 11.2741 -5.75912 8.0778
rclavicle -4.78326e-015 -1.76918e-014
rhumerus -25.8279 -5.46985 -19.4274
rradius 31.755
rwrist 8.47766
rhand -22.0189 -16.2062
rfingers 7.12502
rthumb 4.39053 -46.1407
lclavicle -4.78326e-015 -1.76918e-014
lhumerus -11.435 -4.36017 3.94441
lradius 67.7599
lwrist 0.737923
lhand -7.00164 13.4189
lfingers 7.12502
lthumb 18.8692 42.5236
rfemur -11.2933 -1.50299 11.0595
rtibia 27.4767
rfoot -15.8845 -15.3365
rtoes 1.42966
lfemur -13.3269 -4.54813 -11.4523
ltibia 31.2963
lfoot -16.7807 13.8854
ltoes -9.38499
171
root 1.72702 17.9399 -4.61295 6.11351 0.590281 -0.455009
lowerback -1.72803 0.15553 -7.12394
upperback -0.748395 0.315527 1.41288
thorax 0.149066 0.174913 5.47495
lowerneck -5.67434 -7.65984 -8.44722
upperneck 25.5196 -15.5484 21.9224
head 11.7989 -5.93106 7.74511
rclavicle -3.94463e-015 -6.06293e-015
rhumerus -26.8242 -4.51275 -20.5359
rradius 31.9055
rwrist 8.82795
rhand -21.9136 -16.0554
rfingers 7.12502
rthumb 4.49223 -45.9877
lclavicle -3.94463e-015 -6.06293e-015
lhumerus -10.592 -4.29979 2.85188
lradius 69.3226
lwrist 0.5076
lhand -7.02543 13.1857
lfingers 7.12502
lthumb 18.8464 42.2927
rfemur -11.3381 -1.51603 11.1784
rtibia 27.4742
rfoot -15.8571 -15.3207
rtoes 1.46521
lfemur -13.3614 -4.61132 -11.3353
ltibia 31.298
lfoot -16.7573 13.9555
ltoes -9.37098
172
root 1.71766 17.9414 -4.61931 6.13274 0.585253 -0.532229
lowerback -1.73786 0.259664 -7.16375
upperback -0.645115 0.459223 1.30488
thorax 0.241005 0.240131 5.38729
lowerneck -5.74684 -7.8613 -8.73913
upperneck 26.9059 -15.7824 20.8457
head 12.3223 -6.09112 7.4066
rclavicle 1.82633e-015 1.25234e-014
rhumerus -27.8455 -3.51955 -21.719
rradius 32.0418
rwrist 9.21664
rhand -21.7774 -15.8979
rfingers 7.12502
rthumb 4.62369 -45.8274
lclavicle 1.82633e-015 1.25234e-014
lhumerus -9.69207 -4.0728 1.74138
lradius 70.8371
lwrist 0.194838
lhand -7.03991 12.9234
lfingers 7.12502
lthumb 18.8324 42.0318
rfemur -11.3898 -1.53167 11.2998
rtibia 27.4705
rfoot -15.8275 -15.3029
rtoes 1.49969
lfemur -13.4014 -4.68042 -11.216
ltibia 31.298
lfoot -16.7334 14.033
ltoes -9.35314
173
root 1.70837 17.943 -4.62563 6.15782 0.579453 -0.611385
lowerback -1.75048 0.365626 -7.20112
upperback -0.538056 0.60589 1.1911
thorax 0.338454 0.306504 5.29254
lowerneck -5.83742 -8.04962 -9.02164
upperneck 28.2601 -15.968 19.7746
head 12.8419 -6.23773 7.06767
rclavicle 9.38015e-015 -1.80894e-014
rhumerus -28.8809 -2.49163 -22.9811
rradius 32.1696
rwrist 9.63512
rhand -21.6036 -15.7473
rfingers 7.12502
rthumb 4.79154 -45.6731
lclavicle 9.38015e-015 -1.80894e-014
lhumerus -8.75142 -3.66947 0.628733
lradius 72.2995
lwrist -0.206312
lhand -7.04598 12.631
lfingers 7.12502
lthumb 18.8266 41.7399
rfemur -11.4478 -1.55165 11.4229
rtibia 27.4652
rfoot -15.7954 -15.2814
rtoes 1.5324
lfemur -13.4463 -4.75536 -11.0948
ltibia 31.2966
lfoot -16.7091 14.1187
ltoes -9.33391
174
root 1.69921 17.9448 -4.63186 6.18816 0.572784 -0.691547
lowerback -1.7666 0.469112 -7.23827
upperback -0.429185 0.749836 1.07433
thorax 0.44058 0.371289 5.19482
lowerneck -5.93551 -8.22039 -9.30386
upperneck 29.5771 -16.1004 18.7198
head 13.3547 -6.36934 6.73508
rclavicle 4.02539e-015 -2.78299e-015
rhumerus -29.9202 -1.42444 -24.3259
rradius 32.298
rwrist 10.0684
rhand -21.3845 -15.6203
rfingers 7.12502
rthumb 5.00308 -45.5412
lclavicle 4.02539e-015 -2.78299e-015
lhumerus -7.78944 -3.08401 -0.468809
lradius 73.7075
lwrist -0.701373
lhand -7.04896 12.3064
lfingers 7.12502
lthumb 18.8237 41.4156
rfemur -11.5109 -1.57716 11.5464
rtibia 27.4584
rfoot -15.7612 -15.2547
rtoes 1.56343
lfemur -13.4955 -4.83542 -10.9732
ltibia 31.294
lfoot -16.6846 14.2126
ltoes -9.31668
175
root 1.69021 17.9465 -4.63798 6.22258 0.565134 -0.771993
lowerback -1.78579 0.565778 -7.27738
upperback -0.320949 0.885203 0.957922
thorax 0.545378 0.431708 5.09877
lowerneck -6.02953 -8.36876 -9.5961
upperneck 30.8513 -16.1739 17.6906
head 13.8568 -6.48434 6.4157
rclavicle -1.6027e-014 1.66979e-014
rhumerus -30.9549 -0.3097 -25.7553
rradius 32.4376
rwrist 10.4956
rhand -21.1087 -15.5351
rfingers 7.12502
rthumb 5.26935 -45.4495
lclavicle -1.6027e-014 1.66979e-014
lhumerus -6.8267 -2.31532 -1.53354
lradius 75.0604
lwrist -1.29135
lhand -7.05744 11.9466
lfingers 7.12502
lthumb 18.8156 41.0566
rfemur -11.5777 -1.60798 11.6692
rtibia 27.4501
rfoot -15.7254 -15.2225
rtoes 1.593
lfemur -13.5474 -4.91941 -10.8522
ltibia 31.2901
lfoot -16.6601 14.3138
ltoes -9.30336
176
root 1.68141 17.9483 -4.64398 6.25994 0.556362 -0.851376
lowerback -1.8071 0.652424 -7.32044
upperback -0.215255 1.00762 0.844366
thorax 0.650825 0.485703 5.00801
lowerneck -6.10886 -8.49064 -9.907
upperneck 32.0757 -16.1843 16.6961
head 14.3437 -6.58156 6.11598
rclavicle -4.14963e-015 -1.31198e-014
rhumerus -31.9803 0.860952 -27.2703
rradius 32.5987
rwrist 10.8956
rhand -20.7649 -15.5069
rfingers 7.12502
rthumb 5.60134 -45.4129
lclavicle -4.14963e-015 -1.31198e-014
lhumerus -5.87966 -1.36496 -2.54797
lradius 76.359
lwrist -1.9718
lhand -7.08224 11.5492
lfingers 7.12502
lthumb 18.7917 40.6615
rfemur -11.647 -1.64298 11.7898
rtibia 27.4408
rfoot -15.6888 -15.1854
rtoes 1.62142
lfemur -13.6008 -5.00564 -10.7334
ltibia 31.2848
lfoot -16.6355 14.4205
ltoes -9.29499
